<svg width="32" height="32" viewBox="0 0 32 32" fill="none" xmlns="http://www.w3.org/2000/svg">
<circle cx="16" cy="15.999" r="15.5" stroke="black"/>
<path d="M4 15.999C4 9.37161 9.37258 3.99902 16 3.99902" stroke="black" stroke-linecap="round"/>
<path d="M28 15.999C28 22.6264 22.6274 27.999 16 27.999" stroke="black" stroke-linecap="round"/>
<path d="M18.7891 17.1357H15.0977C15.3483 17.8421 15.7585 18.3844 16.3281 18.7627C16.9023 19.1364 17.5814 19.3232 18.3652 19.3232C19.026 19.3232 19.4886 19.2845 19.7529 19.207V20.5332C19.443 20.6243 18.9782 20.6699 18.3584 20.6699C17.137 20.6699 16.0889 20.3646 15.2139 19.7539C14.3389 19.1432 13.7601 18.2705 13.4775 17.1357H12.1035V16.1514H13.3135C13.2998 15.96 13.293 15.7663 13.293 15.5703C13.293 15.3379 13.3021 15.1374 13.3203 14.9688H12.1035V13.9844H13.4775C13.7646 12.8542 14.3457 11.986 15.2207 11.3799C16.0957 10.7692 17.1416 10.4639 18.3584 10.4639C18.9554 10.4639 19.4157 10.514 19.7393 10.6143V11.9404C19.3792 11.8584 18.9235 11.8174 18.3721 11.8174C17.5928 11.8174 16.916 12.0042 16.3418 12.3779C15.7676 12.7471 15.3551 13.2826 15.1045 13.9844H18.7891V14.9688H14.8857C14.863 15.1829 14.8516 15.3835 14.8516 15.5703C14.8516 15.7526 14.863 15.9463 14.8857 16.1514H18.7891V17.1357Z" fill="black"/>
</svg>
