<svg width="31" height="32" viewBox="0 0 31 32" fill="none" xmlns="http://www.w3.org/2000/svg">
<circle cx="16.6806" cy="4.08925" r="3.27773" stroke="black"/>
<path d="M16.7915 7.64453H11.7262C10.6654 7.64453 9.64796 8.06596 8.89781 8.8161L5.1389 12.575C4.37952 13.3344 4.37952 14.5656 5.1389 15.325V15.325C5.89828 16.0844 7.12948 16.0844 7.88886 15.325L11.2916 11.9223M16.7915 7.64453L23.6386 14.4917C24.3367 15.1897 24.3367 16.3214 23.6386 17.0194V17.0194C22.9406 17.7174 21.8089 17.7174 21.1109 17.0194L16.0137 11.9223M16.7915 7.64453L16.0137 11.9223M11.2916 11.9223H13.1805M11.2916 11.9223V17.2M16.0137 11.9223V15.0431C16.0137 16.104 16.4352 17.1214 17.1853 17.8715L19.0088 19.695C19.7589 20.4451 20.1804 21.4626 20.1804 22.5234V26.4776C20.1804 27.0299 19.7326 27.4776 19.1804 27.4776H17.0137C16.4615 27.4776 16.0137 27.0299 16.0137 26.4776V23.579C16.0137 22.5181 15.5923 21.5007 14.8422 20.7505L14.0416 19.9499M11.2916 17.2L6.94511 26.0362C6.61825 26.7007 7.10189 27.4776 7.84243 27.4776H9.67255C10.0519 27.4776 10.3985 27.263 10.5676 26.9235L14.0416 19.9499M11.2916 17.2L14.0416 19.9499" stroke="black" stroke-linecap="round" stroke-linejoin="round"/>
<line x1="24.0137" y1="16.8115" x2="24.0137" y2="27.2558" stroke="black" stroke-linecap="round"/>
<line x1="0.56958" y1="31.1865" x2="29.6803" y2="31.1865" stroke="black" stroke-linecap="round"/>
<line x1="0.56958" y1="27.6621" x2="29.6803" y2="27.6621" stroke="black" stroke-linecap="round"/>
</svg>
