<svg width="32" height="34" viewBox="0 0 32 34" fill="none" xmlns="http://www.w3.org/2000/svg">
<path d="M1.21191 10.8984H30.788V26.0655H1.21191V10.8984Z" stroke="black" stroke-linejoin="round"/>
<path d="M4.18574 7.91895L1.21191 10.8982H30.788L27.8141 7.91895H4.18574Z" stroke="black" stroke-linejoin="round"/>
<rect x="4.86841" y="18.1025" width="6.60857" height="7.96278" stroke="black" stroke-linejoin="round"/>
<path d="M20.171 15.085H16.0542V20.6491H20.171V15.085Z" stroke="black" stroke-linejoin="round"/>
<path d="M23.3127 15.085H27.4296" stroke="black" stroke-linecap="round"/>
<path d="M4.86841 15.085L11.477 15.085" stroke="black" stroke-linecap="round"/>
<path d="M17.4353 7.6753C17.4353 3.9881 20.4244 0.999023 24.1116 0.999023C27.7988 0.999023 30.7879 3.9881 30.7879 7.6753C30.7879 8.68662 30.563 9.64541 30.1606 10.5044" stroke="black"/>
<path d="M1.21191 29.5322L30.788 29.5322" stroke="black" stroke-linecap="round" stroke-linejoin="round"/>
<path d="M1.21191 32.999L30.788 32.999" stroke="black" stroke-linecap="round" stroke-linejoin="round"/>
</svg>
